<?xml version="1.0" encoding="utf-8"?>
<!-- Generator: Adobe Illustrator 16.0.0, SVG Export Plug-In . SVG Version: 6.00 Build 0)  -->
<!DOCTYPE svg PUBLIC "-//W3C//DTD SVG 1.1//EN" "http://www.w3.org/Graphics/SVG/1.1/DTD/svg11.dtd">
<svg version="1.1" id="Layer_1" xmlns="http://www.w3.org/2000/svg" xmlns:xlink="http://www.w3.org/1999/xlink" x="0px" y="0px"
	 width="16px" height="24px" viewBox="0 0 16 24" enable-background="new 0 0 16 24" xml:space="preserve">
<g>
	<path fill="#FFFFFF" d="M13.452,1.099l-2.828-0.005c-3.178,0-5.231,2.106-5.231,5.368v2.475H2.549c-0.246,0-0.445,0.2-0.445,0.445
		v3.587c0,0.244,0.199,0.443,0.445,0.443h2.844v9.049c0,0.246,0.199,0.445,0.445,0.445h3.71c0.246,0,0.445-0.199,0.445-0.445v-9.049
		h3.325c0.246,0,0.445-0.199,0.445-0.443V9.382c0-0.118-0.047-0.231-0.13-0.314c-0.083-0.083-0.197-0.131-0.315-0.131H9.993V6.838
		c0-1.008,0.24-1.52,1.554-1.52l1.905-0.001c0.245,0,0.444-0.2,0.444-0.446V1.543C13.896,1.298,13.697,1.099,13.452,1.099z"/>
</g>
</svg>
