<?xml version="1.0" encoding="utf-8"?>
<!-- Generator: Adobe Illustrator 16.0.0, SVG Export Plug-In . SVG Version: 6.00 Build 0)  -->
<!DOCTYPE svg PUBLIC "-//W3C//DTD SVG 1.1//EN" "http://www.w3.org/Graphics/SVG/1.1/DTD/svg11.dtd">
<svg version="1.1" id="Capa_1" xmlns="http://www.w3.org/2000/svg" xmlns:xlink="http://www.w3.org/1999/xlink" x="0px" y="0px"
	 width="88.433px" height="88.433px" viewBox="0 0 88.433 88.433" enable-background="new 0 0 88.433 88.433" xml:space="preserve">
<g>
	<g>
		<path fill="#AAAAAA" d="M59.061,56.04L38.508,67.906V52.593l-0.658,0.326c-0.45,0.169-0.919,0.256-1.369,0.256
			c-0.444,0-0.897-0.084-1.353-0.249l-0.109-0.015l-0.355-0.166l-0.21-0.104v15.266L13.898,56.04V42.292l-4.051-2.04v16.957
			c0,0.725,0.387,1.394,1.014,1.754L35.467,73.17c0.311,0.182,0.662,0.272,1.014,0.272s0.701-0.089,1.014-0.272l24.604-14.207
			c0.628-0.36,1.012-1.029,1.012-1.754v-16.96l-4.05,2.03V56.04L59.061,56.04z"/>
		<path fill="#AAAAAA" d="M37.944,15.437l-0.833-0.273c-0.408-0.133-0.853-0.133-1.267,0l-0.83,0.273
			c0.541,1.245,1.032,2.491,1.462,3.676C36.91,17.928,37.406,16.682,37.944,15.437z"/>
		<path fill="#AAAAAA" d="M65.942,26.053c0-0.013,0.004-0.025,0.004-0.04c-0.004-0.042-0.021-0.082-0.026-0.125
			c-0.015-0.136-0.04-0.269-0.081-0.397c-0.021-0.063-0.043-0.123-0.07-0.182c-0.048-0.115-0.107-0.221-0.174-0.321
			c-0.041-0.056-0.072-0.11-0.117-0.161c-0.081-0.1-0.172-0.185-0.275-0.27c-0.045-0.038-0.087-0.082-0.136-0.116
			c-0.014-0.007-0.018-0.019-0.032-0.027c-0.146-0.098-0.304-0.171-0.468-0.228c-0.005,0-0.009-0.004-0.013-0.006l-5.093-1.674
			c-0.236,0.26-0.472,0.508-0.694,0.732c-2.327,2.328-6.257,4.268-9.9,5.708l4.337,1.761v9.989l-6.012,3.031V33.291l-6.882-3.639
			c1.777-0.478,12.739-3.559,17.022-7.847c1.252-1.25,2.901-3.186,2.794-5.573c-0.106-2.381-1.769-3.776-3.108-4.896
			c-0.382-0.319-0.789-0.658-1.18-1.043c-0.388-0.387-0.726-0.796-1.046-1.18c-1.103-1.312-2.603-3.112-5.114-3.112
			c-2.293,0-4.153,1.596-5.351,2.795c-4.295,4.295-7.375,15.275-7.851,17.036c-0.475-1.754-3.556-12.741-7.853-17.036
			C27.427,7.595,25.565,6,23.273,6c-2.513,0-4.015,1.799-5.115,3.112c-0.319,0.382-0.655,0.79-1.043,1.178
			c-0.387,0.388-0.797,0.725-1.179,1.046c-1.34,1.121-3.003,2.514-3.11,4.897c-0.105,2.385,1.543,4.323,2.795,5.573
			c4.285,4.29,15.259,7.372,17.028,7.847l-6.888,3.639v10.437l-6.011-3.031v-9.989l4.341-1.763c-3.648-1.442-7.58-3.382-9.905-5.708
			c-0.222-0.223-0.457-0.472-0.693-0.732l-5.091,1.674c-0.004,0-0.008,0.004-0.012,0.004c-0.161,0.056-0.32,0.132-0.47,0.229
			c-0.013,0.006-0.019,0.02-0.032,0.026c-0.05,0.037-0.091,0.079-0.137,0.117c-0.1,0.085-0.192,0.17-0.273,0.268
			c-0.044,0.05-0.079,0.104-0.117,0.162c-0.067,0.102-0.126,0.209-0.176,0.321c-0.025,0.062-0.05,0.121-0.069,0.185
			c-0.042,0.129-0.066,0.261-0.079,0.397c-0.006,0.043-0.026,0.081-0.028,0.125c0,0.013,0.005,0.024,0.005,0.04
			c0,0.018-0.007,0.035-0.007,0.051v9.203c0,0.766,0.432,1.464,1.114,1.808l27.442,13.816c0.03,0.017,0.059,0.008,0.091,0.022
			c0.261,0.116,0.537,0.194,0.821,0.194c0.283,0,0.561-0.078,0.82-0.194c0.034-0.015,0.062-0.006,0.091-0.022l27.445-13.816
			c0.68-0.346,1.109-1.044,1.109-1.808v-9.203C65.946,26.089,65.942,26.07,65.942,26.053z M46.479,10.948
			c3.954-3.953,4.81-0.912,7.22,1.494c2.404,2.407,5.444,3.264,1.488,7.217C51.237,23.612,39.38,26.76,39.38,26.76
			S42.523,14.902,46.479,10.948z M19.264,12.44c2.406-2.404,3.263-5.445,7.217-1.492c3.956,3.956,7.101,15.812,7.101,15.812
			s-11.858-3.145-15.812-7.099C13.816,15.708,16.859,14.849,19.264,12.44z"/>
	</g>
</g>
<circle fill="#AAAAAA" stroke="#FFFFFF" stroke-width="3" stroke-miterlimit="10" cx="64.933" cy="63.933" r="16.5"/>
<text transform="matrix(1 0 0 1 60.1104 69.209)" fill="#FFFFFF" font-family="'Raleway-Bold'" font-size="20">1</text>
</svg>
