<?xml version="1.0" encoding="utf-8"?>
<!-- Generator: Adobe Illustrator 16.0.0, SVG Export Plug-In . SVG Version: 6.00 Build 0)  -->
<!DOCTYPE svg PUBLIC "-//W3C//DTD SVG 1.1//EN" "http://www.w3.org/Graphics/SVG/1.1/DTD/svg11.dtd">
<svg version="1.1" id="Capa_1" xmlns="http://www.w3.org/2000/svg" xmlns:xlink="http://www.w3.org/1999/xlink" x="0px" y="0px"
	 width="63.552px" height="55.552px" viewBox="0 0 63.552 55.552" enable-background="new 0 0 63.552 55.552" xml:space="preserve">
<g>
	<g>
		<path fill="#C10A0A" d="M51.576,5.06c-2.243-1.235-4.815-1.946-7.559-1.946c-4.842,0-9.178,2.207-12.042,5.666
			c-2.876-3.459-7.208-5.666-12.057-5.666c-2.737,0-5.305,0.711-7.553,1.946c-4.822,2.671-8.089,7.805-8.089,13.706
			c0,1.689,0.275,3.309,0.773,4.825c2.685,12.07,26.926,27.292,26.926,27.292S56.201,35.661,58.89,23.591
			c0.498-1.516,0.775-3.138,0.775-4.825C59.666,12.867,56.399,7.734,51.576,5.06z"/>
	</g>
</g>
</svg>
