<?xml version="1.0" encoding="utf-8"?>
<!-- Generator: Adobe Illustrator 16.0.0, SVG Export Plug-In . SVG Version: 6.00 Build 0)  -->
<!DOCTYPE svg PUBLIC "-//W3C//DTD SVG 1.1//EN" "http://www.w3.org/Graphics/SVG/1.1/DTD/svg11.dtd">
<svg version="1.1" id="Capa_1" xmlns="http://www.w3.org/2000/svg" xmlns:xlink="http://www.w3.org/1999/xlink" x="0px" y="0px"
	 width="63.552px" height="55.552px" viewBox="0 0 63.552 55.552" enable-background="new 0 0 63.552 55.552" xml:space="preserve">
<g>
	<g>
		<path fill="#636363" d="M55.843,15.555L44.969,4.679c-0.359-0.358-0.784-0.538-1.275-0.538c-0.226,0-0.462,0.047-0.708,0.141
			c-0.737,0.322-1.105,0.879-1.105,1.672v5.438H37.35c-2.002,0-3.857,0.104-5.565,0.312c-1.708,0.208-3.214,0.495-4.517,0.864
			c-1.303,0.368-2.478,0.826-3.526,1.373c-1.047,0.548-1.94,1.128-2.676,1.742c-0.737,0.615-1.383,1.313-1.94,2.096
			c-0.557,0.784-1,1.553-1.331,2.308c-0.331,0.755-0.594,1.586-0.793,2.492c-0.199,0.907-0.331,1.755-0.396,2.549
			c-0.066,0.792-0.099,1.652-0.099,2.576c0,1.058,0.165,2.21,0.496,3.456c0.331,1.246,0.694,2.322,1.09,3.229
			c0.396,0.906,0.864,1.846,1.402,2.817c0.538,0.972,0.911,1.618,1.118,1.939c0.208,0.321,0.407,0.614,0.595,0.877
			c0.189,0.247,0.434,0.368,0.737,0.368c0.076,0,0.188-0.018,0.339-0.055c0.435-0.208,0.623-0.529,0.566-0.963
			c-0.85-6.344-0.151-10.81,2.096-13.396c2.172-2.474,6.306-3.711,12.405-3.711h4.532v5.438c0,0.793,0.368,1.35,1.104,1.671
			c0.246,0.094,0.481,0.141,0.708,0.141c0.51,0,0.935-0.179,1.275-0.538l10.875-10.875c0.358-0.359,0.538-0.784,0.538-1.274
			C56.381,16.339,56.201,15.914,55.843,15.555z"/>
		<path fill="#636363" d="M48.536,31.33c-0.359-0.151-0.69-0.076-0.991,0.226c-0.491,0.454-1.001,0.803-1.529,1.049
			c-0.341,0.188-0.51,0.462-0.51,0.82v6.062c0,1.246-0.443,2.312-1.331,3.2c-0.887,0.887-1.954,1.331-3.2,1.331H17.411
			c-1.246,0-2.313-0.444-3.2-1.331c-0.888-0.888-1.332-1.954-1.332-3.2V15.924c0-1.247,0.444-2.312,1.332-3.2
			c0.887-0.887,1.954-1.331,3.2-1.331h3.172c0.113,0,0.264-0.039,0.453-0.113c1.058-0.642,2.312-1.209,3.767-1.7
			c0.491-0.094,0.736-0.396,0.736-0.906c0-0.245-0.09-0.458-0.269-0.638c-0.18-0.178-0.392-0.268-0.638-0.268h-7.222
			c-2.247,0-4.168,0.797-5.763,2.393c-1.595,1.596-2.393,3.517-2.393,5.763v23.562c0,2.248,0.798,4.169,2.393,5.764
			c1.595,1.596,3.517,2.394,5.763,2.394h23.563c2.247,0,4.167-0.798,5.764-2.394c1.595-1.595,2.393-3.516,2.393-5.764v-7.334
			C49.132,31.774,48.933,31.499,48.536,31.33z"/>
	</g>
</g>
</svg>
